<svg xmlns="http://www.w3.org/2000/svg" version="1.1" xmlns:xlink="http://www.w3.org/1999/xlink" xmlns:svgjs="http://svgjs.dev/svgjs" viewBox="0 0 800 800"><defs><linearGradient x1="50%" y1="0%" x2="50%" y2="100%" id="ccchaos-grad"><stop stop-color="hsl(206, 75%, 49%)" stop-opacity="1" offset="0%"></stop><stop stop-color="hsl(331, 90%, 56%)" stop-opacity="1" offset="100%"></stop></linearGradient></defs><g stroke-width="1" stroke="url(#ccchaos-grad)" fill="none" stroke-linecap="round"><path d="M370.42 71.19C380.8 69.06 390.97 67.75 400.91 67.27 410.85 67.13 420.57 67.89 430.07 69.54 439.61 71.59 448.98 74.53 458.19 78.32 467.5 82.46 476.74 87.39 485.94 93.03 495.34 98.92 504.81 105.43 514.4 112.47 524.29 119.63 534.42 127.22 544.81 135.17 555.61 143.11 566.76 151.32 578.27 159.76 590.22 168.07 602.54 176.57 615.16 185.2 628.12 193.65 641.27 202.24 654.48 210.94 667.74 219.44 680.8 228.08 693.44 236.84 705.68 245.42 717.12 254.17 727.52 263.09 736.98 271.87 745 280.85 751.34 290.05 756.33 299.14 759.38 308.49 760.38 318.1 759.9 327.64 757.4 337.47 752.93 347.6 747.32 357.68 740.12 368.09 731.59 378.82 722.73 389.53 713.18 400.58 703.31 411.96 694.17 423.35 685.6 434.81 677.91 446.33 671.7 457.85 666.67 469.42 662.88 481 660.77 492.58 659.82 504.16 659.9 515.68 661.35 527.18 663.45 538.59 665.96 549.83 669.23 560.99 672.43 571.93 675.3 582.55 678.28 593 680.53 603.05 681.86 612.59 682.81 621.84 682.59 630.47 681.17 638.39 679.09 645.9 675.73 652.6 671.14 658.4 665.85 663.74 659.42 668.13 651.94 671.54 643.88 674.51 634.94 676.56 625.24 677.71 615.15 678.62 604.46 678.8 593.33 678.36 581.97 678.01 570.29 677.32 558.4 676.45 546.42 676.11 534.32 675.91 522.19 675.98 510.04 677 497.91 678.54 485.84 680.69 473.79 683.97 461.83 687.92 449.98 692.47 438.15 698.01 426.43 703.95 414.85 710.1 403.26 716.72 392.06 722.95 381.22 728.55 370.36 733.93 359.83 738.24 349.64 741.32 339.37 743.65 329.4 744.5 319.72 743.83 309.93 742.17 300.38 738.98 291.07 734.33 281.61 728.77 272.36 721.91 263.29 713.94 254.05 705.32 244.97 695.83 236.06 685.66 226.97 675.19 218.02 664.28 209.24 653.1 200.29 641.93 191.51 630.66 182.94 619.38 174.26 608.32 165.81 597.34 157.65 586.49 149.45 575.94 141.59 565.52 134.13 555.23 126.72 545.23 119.77 535.32 113.33 525.48 107.05 515.86 101.32 506.24 96.2 496.6 91.3 487.09 87.03 477.5 83.44 467.78 80.08 458.15 77.4 448.34 75.42 438.36 73.65 428.41 72.56 418.24 72.17 407.87 71.95 397.51 72.38 386.93 73.49 376.14 74.68 365.36 76.47 354.63 78.81 344.01 81.14 333.4 83.97 322.9 87.24 312.57 90.4 302.27 93.97 292.16 97.88 282.3 101.61 272.49 105.65 262.96 109.97 253.75 114.04 244.63 118.37 235.86 122.93 227.49 127.25 219.23 131.8 211.39 136.58 204 141.14 196.72 145.97 189.89 151.07 183.56 156.02 177.29 161.29 171.48 166.89 166.14 172.41 160.81 178.31 155.89 184.59 151.38 190.87 146.78 197.56 142.51 204.64 138.56 211.79 134.4 219.35 130.47 227.29 126.75 235.32 122.73 243.73 118.85 252.48 115.11 261.32 111.01 270.48 107.01 279.91 103.15 289.41 98.95 299.15 94.9 309.08 91.06 319.05 86.99 329.18 83.22 339.42 79.84 349.68 76.4 360.02 73.48 370.41 71.19" stroke-dasharray="4 5" transform="rotate(0, 400, 400)" opacity="1.00"></path><path d="M369.09 84.5C379.01 82.38 388.79 81.03 398.41 80.48 408.04 80.25 417.53 80.87 426.89 82.35 436.29 84.2 445.61 86.91 454.85 90.42 464.2 94.29 473.54 98.91 482.92 104.23 492.49 109.81 502.17 116 512 122.72 522.12 129.59 532.47 136.9 543.07 144.59 554.02 152.29 565.28 160.29 576.82 168.54 588.7 176.7 600.85 185.06 613.19 193.58 625.75 201.95 638.36 210.46 650.91 219.09 663.38 227.56 675.54 236.15 687.17 244.86 698.33 253.41 708.65 262.11 717.88 270.96 726.2 279.67 733.13 288.57 738.46 297.65 742.54 306.63 744.83 315.84 745.25 325.26 744.36 334.63 741.64 344.25 737.16 354.12 731.71 363.96 724.83 374.09 716.76 384.49 708.42 394.88 699.46 405.57 690.19 416.56 681.57 427.54 673.44 438.57 666.05 449.61 659.97 460.66 654.91 471.71 650.93 482.74 648.47 493.76 647.05 504.73 646.55 515.59 647.33 526.42 648.74 537.1 650.57 547.58 653.18 557.95 655.81 568.05 658.23 577.8 660.86 587.36 662.92 596.49 664.25 605.08 665.33 613.4 665.44 621.1 664.5 628.1 663.05 634.73 660.46 640.59 656.76 645.6 652.48 650.23 647.11 653.99 640.76 656.88 633.88 659.43 626.11 661.17 617.59 662.14 608.67 662.96 599.13 663.18 589.07 662.89 578.77 662.77 568.08 662.4 557.11 661.9 546.02 661.95 534.74 662.15 523.34 662.62 511.9 663.97 500.4 665.8 488.91 668.16 477.41 671.54 465.94 675.49 454.53 679.95 443.13 685.29 431.8 690.96 420.55 696.78 409.29 703.04 398.37 708.91 387.78 714.2 377.17 719.31 366.85 723.46 356.83 726.49 346.74 728.88 336.92 729.92 327.35 729.58 317.68 728.37 308.23 725.74 298.98 721.76 289.62 716.93 280.42 710.87 271.4 703.73 262.24 695.95 253.22 687.3 244.36 677.93 235.34 668.22 226.47 658.01 217.77 647.45 208.94 636.82 200.28 626 191.83 615.1 183.3 604.33 175.02 593.57 167.02 582.87 159.03 572.4 151.37 562.02 144.1 551.75 136.92 541.71 130.18 531.75 123.95 521.88 117.88 512.2 112.36 502.54 107.43 492.89 102.73 483.38 98.65 473.82 95.23 464.2 92.05 454.66 89.53 445 87.7 435.23 86.09 425.5 85.16 415.61 84.9 405.59 84.82 395.57 85.38 385.39 86.61 375.07 87.93 364.76 89.82 354.54 92.23 344.47 94.64 334.41 97.52 324.49 100.82 314.77 104.01 305.08 107.58 295.6 111.46 286.38 115.17 277.2 119.17 268.31 123.42 259.75 127.43 251.26 131.68 243.12 136.14 235.36 140.35 227.69 144.78 220.41 149.42 213.57 153.84 206.79 158.5 200.45 163.4 194.54 168.14 188.68 173.17 183.22 178.49 178.19 183.71 173.13 189.27 168.43 195.18 164.1 201.05 159.64 207.3 155.48 213.92 151.58 220.56 147.47 227.58 143.56 234.97 139.83 242.41 135.81 250.22 131.91 258.36 128.14 266.55 124.03 275.07 120.02 283.86 116.15 292.7 111.97 301.8 107.94 311.11 104.13 320.45 100.11 329.98 96.39 339.66 93.05 349.35 89.66 359.17 86.78 369.08 84.5" stroke-dasharray="4 3" transform="rotate(4.08695652173913, 400, 400)" opacity="0.96"></path><path d="M369.32 97.81C378.81 95.7 388.24 94.33 397.57 93.71 406.92 93.39 416.21 93.89 425.43 95.19 434.7 96.85 443.96 99.32 453.21 102.56 462.57 106.14 471.98 110.45 481.47 115.44 491.13 120.69 500.94 126.55 510.92 132.93 521.14 139.48 531.58 146.48 542.25 153.86 553.19 161.29 564.38 169.05 575.79 177.05 587.44 185.02 599.26 193.2 611.16 201.55 623.16 209.8 635.12 218.19 646.88 226.71 658.48 235.1 669.67 243.61 680.26 252.24 690.33 260.73 699.52 269.35 707.64 278.11 714.87 286.74 720.77 295.54 725.16 304.49 728.42 313.36 730.04 322.41 729.96 331.66 728.72 340.84 725.85 350.25 721.4 359.87 716.13 369.46 709.58 379.3 701.97 389.37 694.15 399.43 685.76 409.75 677.07 420.32 668.96 430.88 661.25 441.45 654.17 451.99 648.25 462.53 643.2 473.04 639.09 483.48 636.33 493.9 634.48 504.22 633.47 514.4 633.64 524.52 634.4 534.46 635.58 544.14 637.54 553.72 639.58 562.98 641.51 571.86 643.73 580.55 645.52 588.79 646.73 596.49 647.83 603.93 648.12 610.77 647.51 616.92 645.55 625.32 635.93 637.86 628.35 641.96 622.53 644.19 615.85 645.72 608.41 646.59 600.62 647.41 592.17 647.73 583.16 647.64 573.92 647.77 564.24 647.72 554.2 647.6 544.04 648.02 533.6 648.6 522.99 649.44 512.31 651.09 501.51 653.16 490.64 655.69 479.76 659.15 468.83 663.08 457.91 667.43 446.99 672.57 436.08 677.97 425.21 683.47 414.33 689.37 403.73 694.9 393.41 699.87 383.06 704.72 372.98 708.69 363.14 711.65 353.25 714.06 343.59 715.26 334.14 715.21 324.62 714.39 315.28 712.27 306.12 708.9 296.86 704.76 287.75 699.46 278.8 693.12 269.73 686.17 260.8 678.35 252.02 669.79 243.12 660.87 234.36 651.4 225.77 641.52 217.08 631.51 208.58 621.24 200.29 610.82 191.95 600.45 183.87 590.02 176.07 579.6 168.3 569.32 160.87 559.09 153.84 548.95 146.9 538.98 140.41 529.07 134.41 519.24 128.59 509.58 123.3 499.95 118.59 490.36 114.11 480.89 110.24 471.4 107.01 461.9 104.03 452.47 101.68 442.98 100.02 433.43 98.57 423.91 97.78 414.3 97.66 404.6 97.71 394.92 98.4 385.13 99.73 375.26 101.15 365.39 103.13 355.67 105.61 346.12 108.08 336.57 111 327.21 114.31 318.07 117.53 308.95 121.09 300.06 124.96 291.44 128.65 282.86 132.61 274.57 136.8 266.61 140.77 258.7 144.95 251.12 149.33 243.93 153.46 236.78 157.79 230.02 162.32 223.66 166.62 217.33 171.15 211.4 175.89 205.87 180.45 200.34 185.27 195.19 190.36 190.41 195.33 185.57 200.6 181.05 206.18 176.84 211.71 172.5 217.58 168.41 223.78 164.55 229.97 160.47 236.52 156.56 243.42 152.82 250.33 148.78 257.59 144.86 265.17 141.07 272.79 136.95 280.72 132.94 288.93 129.07 297.17 124.91 305.68 120.92 314.42 117.15 323.18 113.19 332.16 109.52 341.32 106.23 350.48 102.91 359.82 100.07 369.31 97.81" stroke-dasharray="4 1" transform="rotate(8.17391304347826, 400, 400)" opacity="0.92"></path><path d="M371.1 111.12C380.2 109.03 389.3 107.64 398.36 106.96 407.45 106.56 416.54 106.93 425.62 108.07 434.75 109.53 443.93 111.77 453.15 114.74 462.46 118.04 471.88 122.03 481.4 126.68 491.07 131.59 500.9 137.09 510.9 143.12 521.1 149.32 531.49 155.98 542.07 163.03 552.86 170.15 563.84 177.61 574.95 185.34 586.21 193.06 597.55 201.01 608.88 209.15 620.21 217.21 631.39 225.44 642.29 233.8 652.95 242.06 663.13 250.45 672.66 258.95 681.65 267.34 689.75 275.86 696.78 284.48 702.99 293.02 707.93 301.69 711.47 310.49 714 319.22 715.03 328.11 714.51 337.15 713.01 346.15 710.04 355.33 705.66 364.69 700.58 374.02 694.38 383.55 687.23 393.28 679.92 403 672.08 412.92 663.95 423.05 656.34 433.17 649.05 443.26 642.29 453.28 636.54 463.29 631.53 473.23 627.33 483.05 624.33 492.85 622.12 502.51 620.65 511.98 620.27 521.4 620.43 530.58 621 539.47 622.32 548.26 623.77 556.7 625.19 564.74 626.97 572.61 628.42 580 629.43 586.87 630.6 596.53 628.95 612.35 625.8 618.36 621.21 623.3 607.12 629.59 597.82 631.15 591.05 632.02 583.63 632.49 575.64 632.63 567.42 633.04 558.71 633.31 549.61 633.55 540.37 634.33 530.8 635.26 520.99 636.43 511.12 638.34 501.04 640.62 490.84 643.29 480.61 646.79 470.28 650.68 459.89 654.92 449.5 659.85 439.06 664.98 428.59 670.16 418.13 675.71 407.89 680.89 397.87 685.57 387.83 690.15 378 693.93 368.38 696.81 358.72 699.22 349.24 700.54 339.95 700.73 330.59 700.25 321.4 698.59 312.36 695.78 303.24 692.28 294.25 687.69 285.41 682.11 276.47 675.96 267.67 668.95 259.01 661.21 250.26 653.09 241.65 644.39 233.22 635.24 224.72 625.91 216.41 616.26 208.32 606.41 200.21 596.53 192.36 586.54 184.8 576.49 177.3 566.53 170.13 556.57 163.36 546.65 156.7 536.86 150.48 527.11 144.75 517.42 139.2 507.86 134.17 498.34 129.7 488.87 125.47 479.5 121.82 470.14 118.8 460.79 116.02 451.51 113.87 442.21 112.36 432.89 111.09 423.61 110.45 414.27 110.45 404.91 110.64 395.55 111.43 386.14 112.85 376.69 114.37 367.25 116.41 357.99 118.94 348.94 121.46 339.89 124.41 331.05 127.73 322.45 130.96 313.86 134.52 305.52 138.36 297.46 142.03 289.42 145.96 281.68 150.1 274.26 154.03 266.88 158.16 259.82 162.47 253.12 166.54 246.45 170.8 240.13 175.24 234.19 179.45 228.25 183.86 222.67 188.47 217.46 192.89 212.21 197.55 207.3 202.44 202.72 207.2 198.06 212.24 193.68 217.55 189.57 222.77 185.3 228.31 181.26 234.16 177.42 239.97 173.35 246.11 169.44 252.57 165.67 259.02 161.63 265.8 157.69 272.89 153.88 279.99 149.76 287.39 145.76 295.09 141.9 302.79 137.78 310.77 133.84 319 130.11 327.23 126.22 335.7 122.62 344.4 119.4 353.09 116.14 361.99 113.36 371.09 111.12" stroke-dasharray="4 0" transform="rotate(12.26086956521739, 400, 400)" opacity="0.88"></path><path d="M374.34 124.43C383.08 122.36 391.86 120.96 400.67 120.24 409.49 119.76 418.37 120.01 427.29 120.99 436.26 122.26 445.31 124.27 454.44 126.97 463.66 129.98 473 133.66 482.45 137.97 492.04 142.53 501.78 147.66 511.67 153.31 521.72 159.15 531.93 165.44 542.27 172.12 552.76 178.9 563.37 186.02 574.04 193.43 584.78 200.86 595.52 208.54 606.15 216.41 616.71 224.24 627.05 232.25 637.02 240.4 646.71 248.48 655.86 256.69 664.33 265.02 672.26 273.26 679.31 281.62 685.33 290.08 690.58 298.47 694.65 306.98 697.42 315.6 699.3 324.16 699.82 332.85 698.94 341.68 697.22 350.46 694.2 359.39 689.93 368.46 685.08 377.51 679.23 386.72 672.52 396.08 665.71 405.44 658.41 414.96 650.83 424.62 643.7 434.28 636.84 443.87 630.4 453.34 624.85 462.81 619.91 472.16 615.66 481.36 612.46 490.53 609.95 499.51 608.09 508.27 607.2 516.98 606.81 525.42 606.81 533.54 607.54 541.57 608.42 549.23 609.32 556.47 610.61 563.57 611.68 570.19 612.42 576.3 613.37 584.89 612.11 598.85 609.55 604.14 605.8 608.54 593.94 614.29 585.94 615.87 580.1 616.85 573.62 617.5 566.56 617.9 559.29 618.58 551.52 619.18 543.32 619.77 534.99 620.87 526.29 622.12 517.29 623.58 508.21 625.72 498.89 628.17 489.38 630.95 479.83 634.46 470.13 638.29 460.31 642.4 450.48 647.11 440.55 651.97 430.54 656.85 420.53 662.05 410.68 666.9 401 671.29 391.31 675.6 381.78 679.19 372.41 681.96 363.02 684.35 353.77 685.76 344.67 686.15 335.53 685.97 326.51 684.71 317.63 682.4 308.69 679.48 299.87 675.55 291.18 670.69 282.43 665.3 273.79 659.08 265.3 652.15 256.75 644.83 248.35 636.92 240.12 628.52 231.86 619.92 223.78 610.96 215.94 601.73 208.1 592.43 200.53 582.96 193.25 573.39 186.04 563.85 179.18 554.26 172.7 544.67 166.35 535.16 160.43 525.66 154.99 516.21 149.73 506.85 144.98 497.52 140.78 488.24 136.81 479.04 133.41 469.87 130.61 460.73 128.04 451.65 126.08 442.57 124.75 433.51 123.65 424.47 123.15 415.43 123.28 406.4 123.58 397.37 124.48 388.33 125.97 379.3 127.56 370.27 129.66 361.46 132.22 352.87 134.78 344.28 137.74 335.93 141.06 327.83 144.29 319.74 147.83 311.9 151.65 304.35 155.3 296.82 159.2 289.57 163.3 282.64 167.19 275.72 171.28 269.12 175.53 262.85 179.56 256.59 183.76 250.66 188.13 245.07 192.27 239.46 196.6 234.18 201.1 229.22 205.42 224.21 209.94 219.5 214.68 215.07 219.27 210.55 224.11 206.26 229.2 202.22 234.18 198.01 239.45 193.99 245 190.16 250.48 186.1 256.27 182.17 262.36 178.39 268.41 174.33 274.78 170.39 281.44 166.56 288.08 162.46 295.03 158.48 302.26 154.65 309.49 150.58 317 146.69 324.77 143.02 332.53 139.21 340.55 135.69 348.82 132.53 357.08 129.36 365.59 126.63 374.33 124.43" stroke-dasharray="0 4" transform="rotate(16.34782608695652, 400, 400)" opacity="0.83"></path><path d="M378.87 137.74C387.27 135.7 395.75 134.3 404.29 133.53 412.85 132.99 421.5 133.13 430.22 133.95 438.99 135.04 447.86 136.82 456.83 139.26 465.88 141.99 475.06 145.35 484.35 149.31 493.75 153.51 503.28 158.27 512.94 163.53 522.71 168.98 532.6 174.88 542.57 181.17 552.63 187.58 562.74 194.33 572.85 201.38 582.96 208.47 592.98 215.82 602.83 223.38 612.55 230.93 621.98 238.66 630.99 246.55 639.69 254.39 647.82 262.37 655.25 270.47 662.16 278.51 668.21 286.66 673.28 294.91 677.66 303.11 680.94 311.41 683.03 319.8 684.34 328.16 684.42 336.62 683.26 345.18 681.39 353.71 678.36 362.37 674.22 371.12 669.62 379.87 664.12 388.73 657.87 397.71 651.54 406.68 644.76 415.76 637.71 424.95 631.06 434.13 624.61 443.2 618.5 452.12 613.16 461.03 608.32 469.79 604.06 478.35 600.72 486.89 597.96 495.22 595.76 503.29 594.44 511.3 593.56 519.03 593.04 526.42 593.2 533.72 593.53 540.65 593.93 547.16 595.06 556.51 596.43 572.57 596.14 579.17 592.56 589.33 579.86 599.14 572.97 600.83 567.94 601.94 562.29 602.8 556.08 603.46 549.68 604.43 542.78 605.33 535.44 606.25 527.96 607.64 520.09 609.18 511.88 610.9 503.6 613.22 495.03 615.81 486.22 618.67 477.37 622.17 468.32 625.92 459.09 629.88 449.86 634.37 440.47 638.96 430.95 643.54 421.43 648.4 412.01 652.93 402.72 657.02 393.41 661.07 384.22 664.46 375.15 667.12 366.07 669.46 357.09 670.93 348.23 671.48 339.35 671.55 330.56 670.64 321.9 668.78 313.19 666.39 304.59 663.07 296.11 658.88 287.59 654.2 279.18 648.74 270.91 642.58 262.62 636.05 254.47 628.93 246.49 621.31 238.51 613.46 230.73 605.22 223.17 596.67 215.65 588.02 208.4 579.15 201.44 570.13 194.57 561.1 188.04 551.97 181.89 542.8 175.88 533.68 170.29 524.53 165.16 515.4 160.22 506.33 155.77 497.28 151.86 488.27 148.16 479.33 145.01 470.4 142.44 461.52 140.1 452.69 138.35 443.88 137.19 435.11 136.25 426.36 135.89 417.63 136.14 408.93 136.56 400.25 137.54 391.58 139.09 382.96 140.75 374.33 142.88 365.93 145.45 357.79 148.03 349.64 150.99 341.74 154.29 334.1 157.52 326.46 161.04 319.09 164.82 312 168.45 304.91 172.31 298.1 176.37 291.6 180.23 285.09 184.28 278.89 188.48 272.99 192.47 267.09 196.63 261.48 200.93 256.19 205.03 250.86 209.29 245.82 213.71 241.07 217.95 236.24 222.37 231.68 226.99 227.38 231.45 222.95 236.13 218.74 241.04 214.74 245.83 210.57 250.87 206.57 256.17 202.73 261.39 198.67 266.89 194.74 272.66 190.94 278.38 186.89 284.39 182.94 290.69 179.11 296.95 175.04 303.5 171.09 310.33 167.29 317.14 163.29 324.23 159.47 331.6 155.87 338.94 152.16 346.56 148.73 354.45 145.65 362.32 142.56 370.46 139.9 378.86 137.74" stroke-dasharray="4 2" transform="rotate(20.434782608695652, 400, 400)" opacity="0.79"></path><path d="M384.46 151.05C392.53 149.06 400.71 147.65 408.97 146.84 417.25 146.24 425.63 146.28 434.11 146.95 442.63 147.87 451.27 149.44 460.01 151.62 468.81 154.07 477.73 157.11 486.76 160.72 495.86 164.57 505.08 168.95 514.38 173.81 523.76 178.86 533.21 184.34 542.69 190.22 552.2 196.23 561.71 202.58 571.14 209.23 580.53 215.94 589.77 222.92 598.77 230.12 607.6 237.33 616.09 244.74 624.13 252.31 631.84 259.86 638.97 267.56 645.4 275.37 651.35 283.15 656.48 291.04 660.68 299.02 664.26 306.97 666.83 315.01 668.32 323.14 669.14 331.24 668.87 339.42 667.49 347.69 665.52 355.93 662.52 364.27 658.55 372.68 654.2 381.08 649.06 389.57 643.25 398.13 637.4 406.69 631.13 415.33 624.59 424.02 618.4 432.71 612.36 441.25 606.58 449.61 601.47 457.96 596.77 466.12 592.53 474.06 589.1 481.98 586.15 489.66 583.67 497.07 581.97 504.42 580.66 511.47 579.68 518.18 579.23 527.94 579.46 545.34 579.64 552.85 579.13 565.29 573.74 578.85 569.85 581.71 565.09 584.21 552.3 587.88 544.37 589.36 538.76 590.59 532.64 591.78 526.08 593 519.4 594.66 512.32 596.44 504.87 598.37 497.36 600.85 489.52 603.54 481.4 606.44 473.25 609.9 464.85 613.55 456.24 617.36 447.61 621.63 438.79 625.95 429.8 630.23 420.8 634.76 411.86 638.98 402.99 642.78 394.11 646.56 385.31 649.75 376.58 652.29 367.86 654.56 359.2 656.05 350.64 656.73 342.07 657 333.57 656.4 325.17 654.94 316.76 653.01 308.43 650.24 300.22 646.67 291.99 642.66 283.87 637.91 275.88 632.5 267.9 626.73 260.05 620.38 252.39 613.54 244.74 606.45 237.29 598.96 230.08 591.13 222.92 583.17 216.02 574.96 209.42 566.55 202.92 558.1 196.76 549.52 190.96 540.85 185.32 532.19 180.09 523.48 175.3 514.76 170.69 506.08 166.57 497.39 162.95 488.72 159.54 480.1 156.66 471.5 154.33 462.94 152.22 454.41 150.66 445.92 149.68 437.47 148.9 429.05 148.68 420.66 149.04 412.32 149.55 403.99 150.61 395.7 152.22 387.47 153.91 379.24 156.07 371.25 158.64 363.52 161.22 355.79 164.17 348.31 167.44 341.1 170.65 333.88 174.13 326.92 177.86 320.24 181.47 313.55 185.28 307.13 189.29 301 193.12 294.86 197.13 288.99 201.29 283.42 205.25 277.81 209.36 272.48 213.62 267.43 217.68 262.33 221.89 257.48 226.24 252.9 230.42 248.22 234.77 243.78 239.28 239.56 243.65 235.22 248.21 231.06 252.97 227.09 257.61 222.95 262.48 218.95 267.58 215.11 272.59 211.05 277.84 207.12 283.35 203.31 288.8 199.27 294.52 195.34 300.5 191.52 306.43 187.5 312.65 183.59 319.13 179.85 325.58 175.92 332.31 172.18 339.31 168.67 346.29 165.06 353.54 161.73 361.07 158.74 368.58 155.75 376.38 153.16 384.45 151.05" stroke-dasharray="2 3" transform="rotate(24.52173913043478, 400, 400)" opacity="0.75"></path><path d="M390.84 164.36C398.58 162.41 406.44 161.02 414.4 160.18 422.37 159.53 430.46 159.47 438.65 160 446.87 160.76 455.2 162.12 463.63 164.05 472.1 166.22 480.68 168.96 489.34 172.23 498.06 175.71 506.85 179.71 515.69 184.16 524.57 188.8 533.48 193.87 542.36 199.31 551.24 204.89 560.05 210.81 568.73 217.03 577.33 223.34 585.73 229.9 593.85 236.7 601.77 243.53 609.31 250.56 616.39 257.76 623.14 264.96 629.31 272.32 634.8 279.79 639.85 287.25 644.12 294.82 647.53 302.49 650.4 310.13 652.35 317.87 653.34 325.67 653.75 333.46 653.19 341.32 651.65 349.25 649.62 357.16 646.7 365.14 642.92 373.18 638.83 381.2 634.06 389.29 628.68 397.41 623.29 405.53 617.51 413.7 611.46 421.88 605.73 430.06 600.1 438.06 594.66 445.86 589.79 453.65 585.24 461.24 581.06 468.58 577.58 475.89 574.49 482.96 571.8 489.73 569.78 496.47 568.11 502.89 566.71 508.98 565.56 517.83 564.42 533.53 564.01 540.29 562.81 551.56 557.51 564.16 554.04 566.98 549.87 569.57 538.67 573.75 531.69 575.59 526.74 577.07 521.32 578.53 515.47 580.01 509.51 581.9 503.15 583.89 496.42 586 489.62 588.59 482.48 591.34 475.05 594.26 467.57 597.65 459.82 601.19 451.83 604.84 443.82 608.87 435.58 612.93 427.14 616.92 418.7 621.13 410.26 625.04 401.85 628.57 393.45 632.08 385.07 635.06 376.75 637.46 368.42 639.65 360.15 641.14 351.94 641.92 343.73 642.35 335.58 642 327.51 640.89 319.44 639.37 311.46 637.09 303.57 634.08 295.69 630.69 287.91 626.6 280.27 621.89 272.65 616.86 265.17 611.26 257.87 605.17 250.6 598.84 243.54 592.1 236.71 585.01 229.95 577.77 223.45 570.25 217.24 562.51 211.15 554.7 205.38 546.72 199.98 538.62 194.72 530.51 189.86 522.31 185.43 514.07 181.18 505.84 177.38 497.59 174.07 489.34 170.96 481.12 168.35 472.9 166.27 464.72 164.39 456.56 163.04 448.43 162.23 440.35 161.61 432.29 161.52 424.27 161.97 416.3 162.58 408.35 163.7 400.44 165.34 392.61 167.06 384.77 169.23 377.19 171.78 369.86 174.35 362.52 177.27 355.44 180.5 348.61 183.66 341.78 187.1 335.2 190.78 328.88 194.34 322.55 198.11 316.48 202.06 310.68 205.85 304.85 209.81 299.27 213.92 293.96 217.85 288.62 221.92 283.51 226.13 278.66 230.15 273.75 234.32 269.06 238.62 264.6 242.75 260.05 247.04 255.7 251.48 251.55 255.77 247.27 260.24 243.15 264.89 239.2 269.41 235.08 274.14 231.1 279.07 227.25 283.91 223.21 288.97 219.29 294.27 215.48 299.49 211.47 304.96 207.57 310.67 203.79 316.34 199.82 322.26 195.98 328.44 192.3 334.58 188.47 340.99 184.83 347.67 181.42 354.32 177.92 361.24 174.7 368.44 171.81 375.62 168.92 383.08 166.42 390.83 164.36" stroke-dasharray="4 1" transform="rotate(28.608695652173914, 400, 400)" opacity="0.71"></path><path d="M397.67 177.67C405.09 175.78 412.62 174.4 420.24 173.54 427.88 172.85 435.62 172.7 443.46 173.1 451.33 173.71 459.29 174.86 467.33 176.56 475.41 178.46 483.56 180.9 491.77 183.83 500.01 186.96 508.29 190.57 516.57 194.62 524.87 198.84 533.14 203.48 541.35 208.48 549.52 213.61 557.57 219.08 565.45 224.85 573.23 230.71 580.76 236.84 587.97 243.19 594.99 249.59 601.6 256.21 607.74 262.98 613.57 269.79 618.84 276.75 623.46 283.83 627.68 290.91 631.18 298.12 633.89 305.4 636.14 312.69 637.55 320.06 638.11 327.5 638.18 334.92 637.4 342.42 635.76 349.96 633.73 357.5 630.9 365.08 627.33 372.7 623.53 380.32 619.11 387.97 614.16 395.63 609.21 403.29 603.9 410.97 598.34 418.63 593.05 426.3 587.81 433.76 582.71 441.01 578.1 448.25 573.73 455.27 569.65 462.03 566.16 468.78 562.98 475.26 560.13 481.46 556.87 490.54 552.37 507.04 550.85 514.38 549.08 527.17 545.74 542.47 543.77 546.25 537.94 552.5 524.5 560 518.29 562.19 511.5 564.74 495.68 570.45 486.75 573.77 480.61 576.43 474.14 579.22 467.35 582.12 460.53 585.43 453.41 588.84 446.03 592.31 438.64 596.11 430.99 599.9 423.12 603.61 415.24 607.51 407.34 611.12 399.43 614.37 391.53 617.63 383.62 620.4 375.74 622.65 367.87 624.74 360.02 626.22 352.22 627.05 344.43 627.6 336.69 627.47 329.01 626.65 321.35 625.49 313.75 623.65 306.26 621.14 298.78 618.3 291.41 614.83 284.16 610.77 276.96 606.42 269.89 601.54 263.01 596.18 256.18 590.59 249.54 584.59 243.13 578.24 236.81 571.73 230.75 564.93 224.97 557.88 219.31 550.74 213.96 543.41 208.97 535.94 204.12 528.43 199.66 520.8 195.6 513.11 191.71 505.4 188.26 497.65 185.26 489.88 182.46 482.12 180.12 474.35 178.28 466.6 176.63 458.87 175.48 451.15 174.84 443.48 174.37 435.82 174.4 428.19 174.95 420.62 175.63 413.07 176.8 405.56 178.46 398.12 180.2 390.69 182.36 383.49 184.88 376.55 187.42 369.59 190.29 362.88 193.46 356.42 196.57 349.94 199.95 343.71 203.55 337.72 207.06 331.71 210.76 325.95 214.64 320.42 218.39 314.87 222.29 309.55 226.34 304.47 230.23 299.34 234.26 294.43 238.41 289.75 242.4 284.99 246.53 280.44 250.78 276.08 254.87 271.63 259.1 267.36 263.48 263.26 267.71 259.03 272.1 254.95 276.65 251.02 281.09 246.94 285.7 242.97 290.5 239.13 295.2 235.13 300.11 231.22 305.22 227.44 310.26 223.47 315.52 219.62 321.01 215.89 326.44 212 332.11 208.25 338.03 204.66 343.9 200.94 350.03 197.41 356.4 194.11 362.76 190.74 369.37 187.64 376.25 184.85 383.11 182.08 390.25 179.67 397.66 177.67" stroke-dasharray="2 5" transform="rotate(32.69565217391304, 400, 400)" opacity="0.67"></path><path d="M404.63 190.98C411.7 189.15 418.87 187.8 426.12 186.92 433.39 186.2 440.75 185.98 448.19 186.26 455.64 186.72 463.18 187.68 470.76 189.15 478.37 190.8 486.03 192.94 493.7 195.54 501.39 198.33 509.08 201.56 516.74 205.21 524.38 209.02 531.97 213.21 539.44 217.76 546.85 222.44 554.12 227.45 561.17 232.74 568.1 238.14 574.76 243.79 581.08 249.67 587.21 255.62 592.93 261.77 598.18 268.09 603.15 274.45 607.58 280.97 611.4 287.61 614.88 294.27 617.69 301.05 619.79 307.91 621.49 314.79 622.46 321.74 622.66 328.76 622.47 335.78 621.53 342.86 619.84 349.97 617.83 357.09 615.14 364.24 611.8 371.41 608.28 378.58 604.22 385.77 599.69 392.95 595.16 400.13 590.32 407.31 585.22 414.45 580.36 421.59 575.51 428.52 570.76 435.23 566.4 441.94 562.23 448.41 558.28 454.63 554.82 460.83 551.61 466.77 548.65 472.43 545.09 480.74 539.65 495.78 537.58 502.46 534.69 514.2 530.14 528.49 528.02 532.15 522.37 538.51 510.05 546.64 504.47 549.15 498.39 551.99 484.2 558.2 476.14 561.68 470.61 564.38 464.74 567.17 458.56 570.02 452.35 573.23 445.84 576.49 439.06 579.78 432.27 583.34 425.22 586.87 417.93 590.3 410.64 593.9 403.28 597.21 395.9 600.2 388.53 603.2 381.14 605.77 373.75 607.87 366.37 609.84 359 611.27 351.66 612.13 344.33 612.78 337.04 612.81 329.81 612.23 322.61 611.39 315.46 609.92 308.41 607.86 301.39 605.52 294.47 602.59 287.68 599.14 280.94 595.42 274.34 591.21 267.92 586.54 261.56 581.67 255.39 576.39 249.45 570.76 243.6 564.98 237.99 558.89 232.67 552.55 227.46 546.11 222.56 539.46 218 532.64 213.57 525.76 209.51 518.76 205.83 511.65 202.32 504.53 199.21 497.33 196.54 490.09 194.04 482.85 191.98 475.58 190.38 468.31 188.96 461.05 188 453.79 187.52 446.56 187.19 439.34 187.34 432.14 187.96 425 188.71 417.86 189.91 410.76 191.58 403.73 193.32 396.7 195.45 389.9 197.93 383.33 200.43 376.75 203.24 370.4 206.32 364.27 209.37 358.14 212.67 352.22 216.19 346.54 219.62 340.83 223.25 335.34 227.04 330.07 230.72 324.76 234.56 319.67 238.54 314.78 242.38 309.85 246.35 305.11 250.44 300.56 254.39 295.95 258.47 291.51 262.66 287.24 266.71 282.88 270.89 278.68 275.2 274.63 279.38 270.46 283.7 266.43 288.17 262.52 292.53 258.48 297.04 254.55 301.72 250.74 306.31 246.78 311.08 242.92 316.04 239.18 320.92 235.28 326 231.5 331.29 227.84 336.52 224.05 341.97 220.4 347.64 216.91 353.28 213.32 359.14 209.92 365.24 206.75 371.31 203.52 377.63 200.54 384.19 197.87 390.74 195.22 397.55 192.91 404.62 190.99" stroke-dasharray="2 3" transform="rotate(36.78260869565217, 400, 400)" opacity="0.63"></path><path d="M411.35 204.29C418.05 202.53 424.84 201.21 431.69 200.33 438.56 199.58 445.49 199.29 452.48 199.46 459.47 199.79 466.52 200.58 473.59 201.83 480.67 203.24 487.77 205.1 494.85 207.39 501.93 209.84 508.98 212.7 515.96 215.95 522.91 219.35 529.76 223.11 536.47 227.21 543.1 231.43 549.56 235.96 555.77 240.77 561.87 245.68 567.67 250.84 573.14 256.23 578.42 261.68 583.3 267.34 587.72 273.17 591.9 279.05 595.57 285.09 598.68 291.25 601.49 297.45 603.7 303.75 605.27 310.15 606.52 316.57 607.11 323.06 607.03 329.62 606.64 336.18 605.6 342.8 603.91 349.45 601.96 356.11 599.43 362.8 596.33 369.49 593.09 376.18 589.38 382.88 585.26 389.57 581.15 396.25 576.75 402.92 572.1 409.53 567.65 416.15 563.19 422.56 558.78 428.75 554.7 434.93 550.75 440.88 546.95 446.59 543.56 452.28 540.36 457.73 537.35 462.91 533.57 470.51 527.38 484.27 524.85 490.41 520.95 501.3 515.2 514.84 512.87 518.45 507.2 524.96 495.61 533.7 490.52 536.48 485.02 539.56 472.2 546.14 464.92 549.72 459.92 552.42 454.6 555.17 448.99 557.96 443.35 561.04 437.42 564.15 431.22 567.24 425.01 570.56 418.55 573.83 411.83 576.99 405.12 580.29 398.34 583.32 391.51 586.05 384.69 588.8 377.83 591.16 370.97 593.1 364.11 594.95 357.26 596.32 350.42 597.19 343.61 597.89 336.82 598.05 330.09 597.68 323.38 597.08 316.74 595.94 310.19 594.27 303.67 592.36 297.25 589.94 290.96 587.02 284.72 583.89 278.63 580.29 272.7 576.27 266.85 572.06 261.18 567.47 255.73 562.54 250.38 557.46 245.26 552.08 240.41 546.44 235.68 540.7 231.23 534.73 227.11 528.59 223.12 522.38 219.47 516.01 216.18 509.53 213.04 503.02 210.28 496.42 207.92 489.75 205.72 483.07 203.93 476.34 202.57 469.59 201.37 462.84 200.6 456.07 200.27 449.32 200.08 442.57 200.32 435.83 201.01 429.13 201.82 422.43 203.04 415.77 204.7 409.15 206.43 402.54 208.52 396.13 210.93 389.93 213.37 383.72 216.1 377.72 219.09 371.92 222.06 366.11 225.26 360.5 228.67 355.1 232.01 349.67 235.54 344.43 239.24 339.39 242.84 334.32 246.59 329.43 250.47 324.72 254.24 319.97 258.14 315.38 262.16 310.97 266.05 306.49 270.06 302.16 274.19 297.98 280.25 291.65 292.8 279.51 299.3 273.66 303.58 269.68 308.01 265.8 312.58 262.04 317.06 258.15 321.71 254.36 326.52 250.68 331.26 246.88 336.18 243.19 341.28 239.63 346.33 235.96 351.57 232.44 357.02 229.07 362.42 225.63 368.03 222.37 373.86 219.33 379.66 216.25 385.69 213.42 391.93 210.87 398.17 208.34 404.64 206.14 411.34 204.3" stroke-dasharray="1 3" transform="rotate(40.869565217391305, 400, 400)" opacity="0.59"></path><path d="M417.5 217.6C423.81 215.92 430.19 214.64 436.6 213.76 443.02 212.99 449.49 212.65 455.98 212.72 468.98 213.28 482.04 215.54 494.96 219.37 507.8 223.77 520.35 229.67 532.29 236.85 543.92 244.49 554.66 253.26 564.13 262.94 572.93 272.91 580.1 283.64 585.32 294.9 589.54 306.31 591.57 318.17 591.26 330.26 589.97 342.42 586.48 354.78 580.91 367.16 577.97 373.35 574.61 379.55 570.88 385.72 567.17 391.9 563.19 398.04 558.98 404.14 554.93 410.23 550.85 416.13 546.78 421.81 542.99 427.49 539.27 432.95 535.65 438.18 529.45 448.61 523.77 458.1 518.63 466.57 514.81 474.98 511.24 482.39 507.74 488.75 505.09 495.14 502.06 500.62 498.44 505.22 495.14 510.09 490.89 514.33 485.59 518.07 480.28 522.44 473.76 526.61 466.03 530.68 458.2 535.69 449.15 540.8 438.97 545.94 433.86 548.87 428.47 551.8 422.83 554.69 417.18 557.78 411.28 560.79 405.14 563.68 399.01 566.69 392.8 569.45 386.53 571.93 380.28 574.43 373.98 576.58 367.66 578.36 355.08 581.7 342.47 583.26 330.05 582.99 317.76 582.03 305.72 579.13 294.15 574.44 282.81 569.03 272.04 561.98 262.09 553.55 252.5 544.62 243.85 534.56 236.36 523.67 229.38 512.53 223.67 500.77 219.44 488.64 215.77 476.44 213.61 463.99 213.1 451.49 213.03 445.24 213.37 438.99 214.11 432.75 214.95 426.52 216.19 420.3 217.82 414.11 219.52 407.93 221.56 401.92 223.89 396.09 226.25 390.26 228.88 384.6 231.76 379.13 237.46 368.15 244.01 357.84 251.22 348.24 258.12 338.5 265.6 329.38 273.54 320.87 281.06 312.11 289.05 303.86 297.45 296.11 305.45 288 313.95 280.29 322.93 273.02 331.61 265.33 340.89 258.04 350.77 251.26 360.46 244.14 370.87 237.6 381.99 231.86 387.51 228.94 393.24 226.26 399.16 223.85 405.06 221.46 411.18 219.36 417.49 217.61" stroke-dasharray="6 4" transform="rotate(44.95652173913044, 400, 400)" opacity="0.55"></path><path d="M422.77 230.91C434.57 227.78 446.5 226.17 458.42 226.04 470.34 226.36 482.21 228.22 493.81 231.5 505.32 235.27 516.42 240.4 526.84 246.72 536.95 253.45 546.14 261.24 554.1 269.9 561.46 278.82 567.32 288.49 571.41 298.69 574.69 309.04 576.05 319.84 575.39 330.88 573.97 342 570.66 353.32 565.57 364.66 560.22 376.02 553.55 387.37 545.86 398.53 538.72 409.69 531.45 420.1 524.38 429.68 518.39 439.23 512.73 447.94 507.46 455.74 503.29 463.53 499.3 470.45 495.37 476.48 492.2 482.59 488.74 487.93 484.83 492.56 481.28 497.46 476.97 501.86 471.82 505.84 466.73 510.38 460.63 514.73 453.51 518.95 446.34 523.97 438.11 528.99 428.87 533.94 419.59 539.67 409.33 545.23 398.19 550.37 387.06 555.91 375.63 560.39 364.13 563.66 352.68 566.74 341.21 568.27 329.92 568.21 318.76 567.61 307.85 565.32 297.4 561.45 287.18 556.98 277.51 551.03 268.62 543.81 260.07 536.15 252.4 527.4 245.81 517.82 239.68 508.01 234.72 497.52 231.1 486.61 227.99 475.62 226.25 464.3 226 452.85 226.2 441.4 227.82 429.85 230.94 418.36 234.3 406.87 238.84 395.95 244.34 385.67 249.8 375.34 256.08 365.58 262.98 356.42 269.65 347.15 276.88 338.38 284.55 330.15 291.88 321.7 299.66 313.69 307.82 306.12 315.66 298.26 323.94 290.76 332.64 283.68 341.09 276.26 350.07 269.24 359.55 262.74 368.87 255.96 378.81 249.76 389.34 244.34 399.81 238.84 410.96 234.29 422.76 230.92" stroke-dasharray="1 1" transform="rotate(49.04347826086956, 400, 400)" opacity="0.50"></path><path d="M426.89 244.22C437.8 241.27 448.74 239.68 459.55 239.42 470.36 239.53 480.99 241.02 491.27 243.79 501.44 246.96 511.12 251.37 520.07 256.86 528.74 262.7 536.49 269.53 543.07 277.17 549.15 285.06 553.86 293.65 557 302.76 559.5 312.03 560.34 321.73 559.44 331.69 557.98 341.73 554.9 351.97 550.31 362.24 545.54 372.55 539.61 382.86 532.74 393 526.32 403.15 519.69 412.62 513.12 421.37 507.41 430.1 501.88 438.09 496.59 445.3 492.2 452.53 487.92 459.03 483.67 464.78 480.08 470.64 476.27 475.88 472.12 480.52 468.32 485.44 463.93 489.95 458.87 494.08 453.93 498.71 448.16 503.16 441.55 507.45 434.94 512.38 427.42 517.25 419.04 521.96 410.63 527.3 401.37 532.4 391.34 537.06 381.3 542.04 371.01 546.06 360.66 548.98 350.36 551.79 340.05 553.25 329.93 553.34 319.93 553.02 310.19 551.24 300.9 548.06 291.81 544.43 283.25 539.46 275.43 533.34 267.91 526.84 261.21 519.33 255.51 511 250.2 502.45 245.96 493.23 242.94 483.53 240.35 473.74 239 463.58 239 453.21 239.37 442.82 241.04 432.27 244.06 421.68 247.3 411.1 251.62 400.97 256.82 391.35 262.01 381.7 267.97 372.51 274.53 363.82 280.91 355.03 287.83 346.66 295.17 338.75 302.26 330.65 309.77 322.93 317.63 315.61 325.23 308.05 333.24 300.82 341.62 294.01 349.79 286.93 358.41 280.24 367.45 274.05 376.36 267.66 385.79 261.84 395.7 256.76 405.56 251.64 415.97 247.39 426.89 244.22" stroke-dasharray="1 0" transform="rotate(53.13043478260869, 400, 400)" opacity="0.46"></path><path d="M429.65 257.54C439.64 254.77 449.53 253.22 459.21 252.86 468.87 252.8 478.27 253.96 487.23 256.25 496.09 258.88 504.41 262.6 511.99 267.3 519.32 272.3 525.76 278.19 531.12 284.83 536.08 291.7 539.81 299.22 542.16 307.25 544.03 315.42 544.48 324.01 543.45 332.87 542.02 341.81 539.22 350.96 535.12 360.17 530.92 369.41 525.7 378.67 519.61 387.82 513.9 396.97 507.91 405.55 501.87 413.51 496.51 421.46 491.19 428.79 486 435.47 481.52 442.18 477.08 448.29 472.64 453.8 468.76 459.42 464.69 464.54 460.36 469.17 456.36 474.05 451.9 478.59 446.93 482.81 442.09 487.44 436.6 491.89 430.43 496.15 424.29 500.92 417.41 505.57 409.82 510 402.21 514.93 393.89 519.57 384.91 523.75 375.93 528.2 366.76 531.76 357.56 534.35 348.4 536.87 339.27 538.23 330.33 538.41 321.5 538.3 312.93 536.92 304.79 534.34 296.83 531.41 289.38 527.31 282.61 522.17 276.1 516.73 270.35 510.35 265.5 503.19 260.98 495.85 257.44 487.84 254.98 479.32 252.87 470.72 251.88 461.7 252.08 452.41 252.6 443.1 254.28 433.56 257.18 423.91 260.27 414.26 264.34 404.94 269.21 396.02 274.09 387.08 279.69 378.49 285.85 370.31 291.88 362.05 298.44 354.13 305.39 346.6 312.16 338.92 319.33 331.56 326.82 324.56 334.12 317.37 341.78 310.49 349.75 304.01 357.57 297.33 365.77 291.02 374.31 285.22 382.76 279.26 391.62 273.85 400.85 269.14 410.04 264.41 419.66 260.49 429.65 257.54" stroke-dasharray="5 4" transform="rotate(57.21739130434783, 400, 400)" opacity="0.42"></path><path d="M430.92 270.85C439.93 268.28 448.76 266.79 457.3 266.35 465.82 266.15 474 267.02 481.7 268.88 489.31 271 496.35 274.1 502.66 278.05 508.78 282.25 514.06 287.26 518.36 292.95 522.35 298.82 525.26 305.31 526.99 312.27 528.37 319.35 528.54 326.84 527.46 334.61 526.11 342.45 523.62 350.51 520.02 358.66 516.37 366.84 511.82 375.08 506.49 383.26 501.46 391.43 496.1 399.15 490.62 406.35 485.66 413.56 480.64 420.26 475.65 426.44 471.21 432.66 466.74 438.39 462.25 443.64 458.2 449 453.99 453.96 449.58 458.52 445.45 463.31 440.97 467.8 436.11 472.01 431.38 476.55 426.14 480.91 420.39 485.04 414.68 489.59 408.38 493.95 401.52 498.06 394.66 502.55 387.22 506.73 379.25 510.44 371.28 514.36 363.19 517.49 355.12 519.75 347.08 521.99 339.1 523.22 331.33 523.45 323.65 523.47 316.23 522.42 309.23 520.33 302.38 518 296 514.64 290.25 510.37 284.72 505.87 279.87 500.51 275.84 494.44 272.07 488.21 269.16 481.34 267.21 473.96 265.56 466.5 264.88 458.6 265.26 450.39 265.89 442.15 267.56 433.63 270.31 424.93 273.21 416.23 277 407.76 281.51 399.58 286.04 391.38 291.23 383.45 296.94 375.83 302.58 368.16 308.7 360.76 315.2 353.67 321.57 346.48 328.32 339.55 335.36 332.95 342.26 326.21 349.49 319.77 356.99 313.69 364.38 307.47 372.08 301.62 380.04 296.23 387.95 290.76 396.17 285.79 404.66 281.47 413.13 277.15 421.9 273.56 430.92 270.85" stroke-dasharray="3 3" transform="rotate(61.30434782608696, 400, 400)" opacity="0.38"></path><path d="M430.63 284.16C438.63 281.81 446.39 280.41 453.8 279.91 461.19 279.6 468.19 280.21 474.7 281.68 481.13 283.36 487 285.88 492.18 289.15 499.35 294.7 509.18 309.25 511.55 317.93 512.55 323.96 512.54 330.38 511.5 337.08 510.28 343.84 508.1 350.83 504.99 357.95 501.87 365.08 497.97 372.31 493.37 379.54 488.98 386.77 484.27 393.64 479.37 400.11 474.85 406.58 470.2 412.67 465.51 418.35 461.23 424.07 456.87 429.41 452.45 434.37 448.38 439.43 444.15 444.18 439.77 448.6 435.62 453.2 431.2 457.56 426.49 461.65 421.91 466.01 416.94 470.18 411.6 474.11 406.3 478.35 400.56 482.39 394.39 486.14 388.23 490.16 381.63 493.87 374.63 497.13 367.63 500.55 360.59 503.25 353.6 505.2 346.64 507.15 339.78 508.24 333.14 508.47 326.57 508.57 320.27 507.77 314.36 506.09 308.57 504.24 303.23 501.52 298.45 498 293.83 494.32 289.84 489.88 286.55 484.79 283.48 479.58 281.16 473.76 279.68 467.45 278.42 461.08 278.02 454.27 278.53 447.11 279.24 439.93 280.86 432.43 283.43 424.7 286.13 416.97 289.6 409.37 293.71 401.97 297.86 394.57 302.6 387.34 307.82 380.36 313 373.34 318.63 366.52 324.61 359.97 330.5 353.34 336.74 346.93 343.25 340.82 349.67 334.61 356.38 328.67 363.31 323.07 370.17 317.37 377.28 312.02 384.59 307.12 391.87 302.15 399.37 297.66 407.06 293.75 414.74 289.87 422.62 286.63 430.63 284.16" stroke-dasharray="1 4" transform="rotate(65.39130434782608, 400, 400)" opacity="0.34"></path><path d="M428.79 297.47C435.77 295.36 442.45 294.06 448.76 293.53 458 293.34 474.1 296.95 480.7 300.6 486.48 305.09 494.2 317.07 495.94 324.3 496.62 332.03 493.62 349.1 490.07 358.18 487.45 364.3 484.16 370.55 480.24 376.85 476.5 383.15 472.41 389.19 468.11 394.94 464.07 400.69 459.87 406.16 455.56 411.31 451.55 416.5 447.42 421.42 443.2 426.04 439.24 430.74 435.14 435.2 430.9 439.38 426.85 443.72 422.59 447.84 418.11 451.72 413.75 455.8 409.1 459.69 404.19 463.34 399.32 467.21 394.13 470.86 388.64 474.21 383.16 477.77 377.37 481.01 371.3 483.82 365.22 486.75 359.17 489.05 353.23 490.7 344.4 492.82 327.81 493.34 320.31 491.68 313.33 489.13 301.89 480.37 297.68 474.34 294.34 467.62 291.38 451.64 291.9 442.61 292.66 436.46 294.19 429.97 296.55 423.22 299.01 416.47 302.14 409.77 305.83 403.21 309.55 396.64 313.81 390.18 318.49 383.9 323.15 377.6 328.23 371.45 333.61 365.5 338.96 359.52 344.61 353.72 350.51 348.18 356.35 342.57 362.44 337.21 368.71 332.15 374.94 327.05 381.37 322.26 387.95 317.87 394.51 313.45 401.23 309.46 408.05 305.99 414.87 302.55 421.81 299.67 428.79 297.47" stroke-dasharray="2 5" transform="rotate(69.47826086956522, 400, 400)" opacity="0.30"></path><path d="M425.51 310.78C437.38 307.15 447.97 306.27 456.82 307.85 465.48 309.84 472.14 314.22 476.35 320.48 480.16 327.06 481.38 335.32 479.81 344.68 478.01 354.16 473.74 364.55 467.12 375.33 460.99 386.09 453.64 396.21 445.76 405.38 438.69 414.67 430.99 423.23 422.92 430.85 415.41 438.88 407.12 446.27 398.21 452.7 389.45 459.73 379.76 465.87 369.4 470.5 359.05 475.51 349.02 478.18 339.87 478.56 330.87 478.79 322.96 476.5 316.73 471.94 310.86 467.11 306.9 460.11 305.32 451.37 304.2 442.51 305.55 432.1 309.67 420.57 314.11 409.04 320.77 397.52 328.96 386.52 337.14 375.47 346.74 364.83 357.15 355.07 367.46 345.19 378.64 336.14 390.17 328.5 401.67 320.83 413.63 314.69 425.51 310.78" stroke-dasharray="5 5" transform="rotate(73.56521739130434, 400, 400)" opacity="0.26"></path><path d="M420.93 324.09C430.72 320.97 439.29 320.09 446.3 321.21 455.79 324.26 464.98 339.18 464.13 349.98 462.73 357.59 459.34 366.07 454 375.04 448.99 384.01 442.83 392.62 436.08 400.57 429.85 408.62 422.98 416.16 415.76 422.96 408.92 430.04 401.49 436.55 393.67 442.18 385.97 448.2 377.68 453.37 369.06 457.19 360.43 461.27 352.29 463.41 345.02 463.68 334.75 462.98 320.95 451.88 318.52 442.06 317.85 434.93 319.19 426.43 322.79 416.88 326.63 407.32 332.3 397.65 339.23 388.31 346.21 378.96 354.39 369.89 363.25 361.56 372.07 353.17 381.6 345.5 391.36 339.03 401.11 332.58 411.14 327.41 420.93 324.09" stroke-dasharray="5 5" transform="rotate(77.65217391304348, 400, 400)" opacity="0.22"></path><path d="M415.3 337.4C426.36 334.42 442.32 336.85 446.65 341.73 449.25 347.99 446.3 365.5 440.88 376.02 436.95 383.21 432.01 390.24 426.49 396.86 421.27 403.53 415.45 409.88 409.32 415.66 403.42 421.6 397.07 427.06 390.5 431.76 384.01 436.68 377.18 440.86 370.27 443.88 360.16 447.88 343.59 448.31 337.84 444.79 333.5 439.76 332.27 423.27 335.91 412.34 339.09 404.75 343.71 396.97 349.33 389.41 355.02 381.85 361.66 374.49 368.85 367.71 376.05 360.91 383.79 354.7 391.66 349.47 399.54 344.27 407.57 340.11 415.3 337.4" stroke-dasharray="3 2" transform="rotate(81.73913043478261, 400, 400)" opacity="0.17"></path><path d="M408.9 350.71C424.31 347.47 434.42 362.97 427.76 378.2 422.13 389.02 413.27 399.83 403.49 408.86 394.18 418.22 383.42 426.19 372.98 430.57 358.37 435.26 344.69 422.65 349.03 407.18 354.02 395.87 363.23 383.87 374.06 373.6 384.99 363.36 397.48 354.9 408.9 350.71" stroke-dasharray="3 0" transform="rotate(85.82608695652173, 400, 400)" opacity="0.13"></path><path d="M402.06 364.02C412.13 361.67 418.86 371.38 414.64 381.49 410.94 388.74 404.91 396.19 398.15 402.49 391.58 408.92 384.09 414.35 377.05 417.26 367.33 420.26 358.97 411.87 362.15 401.66 365.57 394.18 371.75 386.18 378.97 379.32 386.27 372.49 394.56 366.85 402.06 364.02" stroke-dasharray="1 2" transform="rotate(89.91304347826087, 400, 400)" opacity="0.09"></path></g></svg>